<svg width="14" height="14" viewBox="0 0 14 14" fill="none" xmlns="http://www.w3.org/2000/svg">
<path fill-rule="evenodd" clip-rule="evenodd" d="M0.470072 0.470072C0.610698 0.329622 0.801322 0.250732 1.00007 0.250732C1.19882 0.250732 1.38945 0.329622 1.53007 0.470072L13.5301 12.4701C13.6038 12.5387 13.6629 12.6215 13.7039 12.7135C13.7448 12.8055 13.7669 12.9048 13.7687 13.0056C13.7704 13.1063 13.7519 13.2063 13.7142 13.2997C13.6765 13.3931 13.6203 13.4779 13.5491 13.5491C13.4779 13.6203 13.3931 13.6765 13.2997 13.7142C13.2063 13.7519 13.1063 13.7704 13.0056 13.7687C12.9048 13.7669 12.8055 13.7448 12.7135 13.7039C12.6215 13.6629 12.5387 13.6038 12.4701 13.5301L0.470072 1.53007C0.329622 1.38945 0.250732 1.19882 0.250732 1.00007C0.250732 0.801322 0.329622 0.610698 0.470072 0.470072Z" fill="black"/>
<path fill-rule="evenodd" clip-rule="evenodd" d="M13.5301 0.470072C13.6705 0.610698 13.7494 0.801322 13.7494 1.00007C13.7494 1.19882 13.6705 1.38945 13.5301 1.53007L1.53009 13.5301C1.38792 13.6626 1.19987 13.7347 1.00557 13.7312C0.811267 13.7278 0.625882 13.6491 0.488469 13.5117C0.351056 13.3743 0.272344 13.1889 0.268916 12.9946C0.265487 12.8003 0.33761 12.6122 0.47009 12.4701L12.4701 0.470072C12.6107 0.329622 12.8013 0.250732 13.0001 0.250732C13.1988 0.250732 13.3895 0.329622 13.5301 0.470072Z" fill="black"/>
</svg>
