<svg width="50" height="50" viewBox="0 0 50 50" fill="none" xmlns="http://www.w3.org/2000/svg">
<path fill-rule="evenodd" clip-rule="evenodd" d="M15 0C6.71573 0 0 6.71573 0 15V35C0 43.2843 6.71573 50 15 50H35C43.2843 50 50 43.2843 50 35V15C50 6.71573 43.2843 0 35 0H15ZM33.3215 15.2602L35.3017 13.7131C35.7642 13.3317 36.3276 13.0929 36.9233 13.0257C37.519 12.9585 38.1214 13.0658 38.6572 13.3346C39.1931 13.6033 39.6393 14.0219 39.9417 14.5396C40.2441 15.0572 40.3897 15.6515 40.3606 16.2503V34.1807C40.3606 34.7388 40.1389 35.2739 39.7444 35.6685C39.3498 36.0631 38.8146 36.2847 38.2566 36.2847H33.3215V24.3414L24.89 30.6689L16.4585 24.3414V36.2847H11.5233C10.9653 36.2847 10.4302 36.0631 10.0356 35.6685C9.64102 35.2739 9.41934 34.7388 9.41934 34.1807V16.2503C9.37728 15.6463 9.51333 15.0432 9.81066 14.5158C10.108 13.9884 10.5535 13.5598 11.092 13.2831C11.6306 13.0065 12.2384 12.8939 12.8403 12.9593C13.4422 13.0247 14.0117 13.2653 14.4782 13.6512L16.4585 15.1983L24.89 21.5258L33.3215 15.2602Z" fill="#0A1523"/>
</svg>
