<svg width="50" height="50" viewBox="0 0 50 50" fill="none" xmlns="http://www.w3.org/2000/svg">
<rect width="50" height="50" rx="15" fill="#0A1523"/>
<path d="M35.3017 13.7131L33.3215 15.2602L24.89 21.5258L16.4585 15.1983L14.4782 13.6512C14.0117 13.2653 13.4422 13.0247 12.8403 12.9593C12.2384 12.8939 11.6306 13.0065 11.092 13.2831C10.5535 13.5598 10.108 13.9884 9.81066 14.5158C9.51333 15.0432 9.37728 15.6463 9.41934 16.2503V34.1807C9.41934 34.7388 9.64102 35.2739 10.0356 35.6685C10.4302 36.0631 10.9653 36.2847 11.5234 36.2847H16.4585V24.3414L24.89 30.6689L33.3215 24.3414V36.2847H38.2566C38.8146 36.2847 39.3498 36.0631 39.7444 35.6685C40.1389 35.2739 40.3606 34.7388 40.3606 34.1807V16.2503C40.3897 15.6515 40.2441 15.0572 39.9417 14.5396C39.6393 14.0219 39.1931 13.6033 38.6572 13.3346C38.1214 13.0658 37.519 12.9585 36.9233 13.0257C36.3276 13.0929 35.7642 13.3317 35.3017 13.7131Z" fill="#485F7C"/>
</svg>
