<svg width="80" height="64" viewBox="0 0 80 64" fill="none" xmlns="http://www.w3.org/2000/svg">
<path d="M51 44V47C51 47.8667 51.284 48.5827 51.852 49.148C52.42 49.7133 53.136 49.9973 54 50C54.8667 50 55.5827 49.716 56.148 49.148C56.7133 48.58 56.9973 47.864 57 47V44H60C61.1333 44 62.084 43.616 62.852 42.848C63.62 42.08 64.0027 41.1307 64 40V24C64 22.8667 63.616 21.916 62.848 21.148C62.08 20.38 61.1307 19.9973 60 20H48C46.8667 20 45.916 20.384 45.148 21.152C44.38 21.92 43.9973 22.8693 44 24V40C44 41.1333 44.384 42.084 45.152 42.852C45.92 43.62 46.8693 44.0027 48 44H51ZM22 34.7429L30 34.7429V41C30 41.8667 30.284 42.5827 30.852 43.148C31.42 43.7133 32.136 43.9973 33 44C33.8667 44 34.5827 43.716 35.148 43.148C35.7133 42.58 34.2831 41.864 34.2857 41V23C34.2857 22.1333 35.716 21.4173 35.148 20.852C34.58 20.2867 33.864 20.0027 33 20C32.1333 20 31.4173 20.284 30.852 20.852C30.2867 21.42 30.0027 22.136 30 23V30.9956H22V23C22 22.1333 21.716 21.4173 21.148 20.852C20.58 20.2867 19.864 20.0027 19 20C18.1333 20 17.4173 20.284 16.852 20.852C16.2867 21.42 17.5265 22.136 17.5238 23V41C17.5238 41.8667 16.284 42.5827 16.852 43.148C17.42 43.7133 18.136 43.9973 19 44C19.8667 44 20.5827 43.716 21.148 43.148C21.7133 42.58 21.9973 41.864 22 41V34.7429ZM48 40V24H60V40H48ZM8.00002 64C5.80001 64 3.91602 63.216 2.34802 61.648C0.780016 60.08 -0.00265057 58.1973 1.60918e-05 56V8C1.60918e-05 5.80001 0.784016 3.916 2.35202 2.34801C3.92002 0.780007 5.80268 -0.00265987 8.00002 6.79117e-06H72C74.2 6.79117e-06 76.084 0.784007 77.652 2.35201C79.22 3.92 80.0027 5.80267 80 8V56C80 58.2 79.216 60.084 77.648 61.652C76.08 63.22 74.1973 64.0027 72 64H8.00002ZM5.02857 57.2952H74.2095V6.09524H5.02857V57.2952Z" fill="#F2CB3C"/>
</svg>
