<svg width="80" height="95" viewBox="0 0 80 95" fill="none" xmlns="http://www.w3.org/2000/svg">
<path d="M52.5002 59.205C47.859 59.205 43.4078 61.0487 40.1259 64.3306C36.844 67.6125 35.0002 72.0637 35.0002 76.705C35.0002 81.3462 36.844 85.7974 40.1259 89.0793C43.4078 92.3612 47.859 94.205 52.5002 94.205C57.1415 94.205 61.5927 92.3612 64.8746 89.0793C68.1565 85.7974 70.0002 81.3462 70.0002 76.705C70.0002 72.0637 68.1565 67.6125 64.8746 64.3306C61.5927 61.0487 57.1415 59.205 52.5002 59.205ZM45.0002 76.705C45.0002 74.7158 45.7904 72.8082 47.1969 71.4017C48.6035 69.9951 50.5111 69.205 52.5002 69.205C54.4894 69.205 56.397 69.9951 57.8035 71.4017C59.2101 72.8082 60.0002 74.7158 60.0002 76.705C60.0002 78.6941 59.2101 80.6017 57.8035 82.0083C56.397 83.4148 54.4894 84.205 52.5002 84.205C50.5111 84.205 48.6035 83.4148 47.1969 82.0083C45.7904 80.6017 45.0002 78.6941 45.0002 76.705Z" fill="#F2CB3C"/>
<path d="M61.0514 16.979L48.941 0L4.41143 35.5733L1.94286 35.5467V35.5848H0V81.299H80V35.5848H76.3352L69.0438 14.2552L61.0514 16.979ZM68.2857 35.5848H30.0838L58.5371 25.8857L64.3352 24.0305L68.2857 35.5848ZM53.5238 19.5467L24.1524 29.5581L47.4133 10.9752L53.5238 19.5467ZM7.61905 66.7048V50.1714C9.22627 49.6019 10.6861 48.6808 11.8922 47.4755C13.0982 46.2701 14.0201 44.8107 14.5905 43.2038H65.4095C65.9797 44.8113 66.9014 46.2713 68.1074 47.4773C69.3135 48.6834 70.7735 49.6051 72.381 50.1752V66.7086C70.7735 67.2787 69.3135 68.2004 68.1074 69.4065C66.9014 70.6125 65.9797 72.0725 65.4095 73.68H14.5981C14.0274 72.0712 13.1046 70.61 11.8972 69.4033C10.6898 68.1965 9.2282 67.2746 7.61905 66.7048Z" fill="#F2CB3C"/>
</svg>
