<svg width="90" height="85" viewBox="0 0 90 85" fill="none" xmlns="http://www.w3.org/2000/svg">
<path d="M16.5556 75.3089L23.3289 69.9253L23.3733 69.89C24.7867 68.7638 25.5022 68.1985 26.2978 67.7966C27.0089 67.4345 27.7689 67.1695 28.5556 67.0105C29.44 66.8294 30.36 66.8294 32.2089 66.8294H70.7911C75.76 66.8294 78.2489 66.8294 80.1467 65.8666C81.8192 65.0198 83.1789 63.6687 84.0311 62.0067C85 60.1165 85 57.6433 85 52.7146V19.1192C85 14.1817 85 11.7085 84.0311 9.82269C83.1775 8.16028 81.8162 6.80908 80.1422 5.96277C78.2444 5 75.7556 5 70.7778 5H19.2222C14.2444 5 11.7556 5 9.85333 5.96277C8.18067 6.80934 6.82083 8.1606 5.96889 9.82269C5 11.7129 5 14.1861 5 19.1324V69.7928C5 74.5007 5 76.8546 5.96889 78.0603C6.38552 78.5801 6.91482 78.9998 7.51736 79.2881C8.1199 79.5763 8.78014 79.7258 9.44889 79.7253C11.0044 79.7253 12.8533 78.2502 16.5556 75.3089Z" stroke="#F2CB3C" stroke-width="10" stroke-linecap="round" stroke-linejoin="round"/>
</svg>
