<svg width="68" height="68" viewBox="0 0 68 68" fill="none" xmlns="http://www.w3.org/2000/svg">
<path d="M56.6667 5.66666C62.3334 5.66666 62.3334 11.3333 62.3334 11.3333V19.8333H51.0001M56.6667 5.66666C51.0001 5.66666 51.0001 11.3333 51.0001 11.3333V19.8333M56.6667 5.66666H19.8334C14.1667 5.66666 14.1667 11.3333 14.1667 11.3333V48.1667M51.0001 19.8333V56.6667C51.0001 56.6667 51.0001 62.3333 45.3334 62.3333M45.3334 62.3333C39.6667 62.3333 39.6667 56.6667 39.6667 56.6667V48.1667H5.66675V56.6667C5.66675 56.6667 5.66675 62.3333 11.3334 62.3333H45.3334ZM25.5001 22.6667H39.6667M25.5001 34H39.6667" stroke="#D15B15" stroke-width="6" stroke-linecap="round" stroke-linejoin="round"/>
</svg>
