<svg width="50" height="59" viewBox="0 0 50 59" fill="none" xmlns="http://www.w3.org/2000/svg">
<path d="M46.625 48.5V31.875C46.625 26.6283 42.3717 22.375 37.125 22.375H32.1875C30.22 22.375 28.625 20.78 28.625 18.8125V12.875C28.625 7.6283 24.3717 3.375 19.125 3.375H11M46.625 48.5C46.625 52.435 43.435 55.625 39.5 55.625H11C7.06497 55.625 3.875 52.435 3.875 48.5V10.5C3.875 6.56497 7.06497 3.375 11 3.375M46.625 48.5V32.5512C46.625 27.5129 44.8453 22.6366 41.6 18.7828L35.0306 10.9816C30.9692 6.15873 24.9857 3.375 18.6806 3.375H11" stroke="#D15B15" stroke-width="6"/>
</svg>
