<svg width="55" height="49" viewBox="0 0 55 49" fill="none" xmlns="http://www.w3.org/2000/svg">
<path d="M6.68747 18.6083C7.93169 14.2692 10.5176 10.4353 14.0747 7.65627C17.6317 4.8772 21.9773 3.29556 26.4885 3.13803C30.9997 2.98049 35.445 4.25516 39.1872 6.77933C42.9294 9.3035 45.7765 12.9476 47.3204 17.1893M46.9282 32.8095C45.3202 36.6204 42.6411 39.8829 39.2158 42.2014C35.7904 44.5198 31.766 45.7947 27.6305 45.8713C23.495 45.948 19.4261 44.8231 15.9172 42.6331C12.4083 40.4431 9.61015 37.2822 7.86211 33.5335M12.5707 31.4704L6.47421 32.3744L3.53955 37.7941M42.0668 19.1084L48.1633 18.2044L51.098 12.7847" stroke="#D15B15" stroke-width="6" stroke-linecap="round" stroke-linejoin="round"/>
</svg>
