<svg width="95" height="66" viewBox="0 0 95 66" fill="none" xmlns="http://www.w3.org/2000/svg">
<rect x="61.739" width="33.2611" height="65.7714" fill="#485F7C"/>
<rect width="6" height="66" fill="#485F7C"/>
<path d="M4 65L52.1905 65" stroke="#485F7C" stroke-width="2" stroke-linecap="round"/>
<path d="M2 1L42.5238 0.999997" stroke="#485F7C" stroke-width="2" stroke-linecap="round"/>
<path d="M65.0029 11H94" stroke="#FFEEAF" stroke-width="1.71157" stroke-linecap="round"/>
<path d="M82.0012 22L94 22" stroke="#FFEEAF" stroke-width="1.71157" stroke-linecap="round"/>
<path d="M72.0022 33L94 33" stroke="#FFEEAF" stroke-width="1.71157" stroke-linecap="round"/>
<path d="M65 44.7012L93.8421 44.7012" stroke="#FFEEAF" stroke-width="1.71157" stroke-linecap="round"/>
<path d="M18.65 47V41.55L17.5 41.95L17 40.8L18.85 40H20.45V47H18.65ZM27.4527 46.9C25.9661 47.0333 24.7327 47.1 23.7527 47.1C23.0994 47.1 22.6194 46.9467 22.3127 46.64C22.0061 46.3333 21.8527 45.8533 21.8527 45.2V42C21.8527 41.3 22.0094 40.7933 22.3227 40.48C22.6427 40.16 23.1527 40 23.8527 40H27.4527V41.4H24.2527C23.8527 41.4 23.6527 41.6 23.6527 42V45.2C23.6527 45.3533 23.6961 45.4767 23.7827 45.57C23.8761 45.6567 23.9927 45.7 24.1327 45.7C24.2727 45.7 24.4261 45.7 24.5927 45.7C24.7594 45.6933 24.9327 45.6867 25.1127 45.68C25.2927 45.6733 25.4727 45.6667 25.6527 45.66C25.8394 45.6533 26.0761 45.64 26.3627 45.62C26.6561 45.6 27.0194 45.5767 27.4527 45.55V46.9Z" fill="#485F7C"/>
<path d="M17.6 29H21.8C22.5 29 23.0067 29.16 23.32 29.48C23.64 29.7933 23.8 30.3 23.8 31V32C23.8 32.7 23.64 33.21 23.32 33.53C23.0067 33.8433 22.5 34 21.8 34H19.4V36H17.6V29ZM22 31C22 30.6 21.8 30.4 21.4 30.4H19.4V32.6H21.4C21.8 32.6 22 32.4 22 32V31ZM26.2496 31.85C25.9829 31.85 25.8496 31.9833 25.8496 32.25V32.8H27.5496V32.25C27.5496 31.9833 27.4163 31.85 27.1496 31.85H26.2496ZM29.0996 35.9C27.8129 36.0333 26.6463 36.1 25.5996 36.1C25.1463 36.1 24.7829 35.9633 24.5096 35.69C24.2363 35.4167 24.0996 35.0533 24.0996 34.6V32.2C24.0996 31.7 24.2396 31.31 24.5196 31.03C24.8063 30.7433 25.1996 30.6 25.6996 30.6H27.6996C28.1996 30.6 28.5896 30.7433 28.8696 31.03C29.1563 31.31 29.2996 31.7 29.2996 32.2V34.05H25.8496V34.45C25.8496 34.55 25.8829 34.6333 25.9496 34.7C26.0163 34.7667 26.0996 34.8 26.1996 34.8C26.8596 34.8 27.8263 34.75 29.0996 34.65V35.9ZM29.7957 36V30.7H31.5457V34.65H32.6957V30.7H34.4457V34.65H35.5957V30.7H37.3457V36H29.7957ZM40.0004 31.85C39.7337 31.85 39.6004 31.9833 39.6004 32.25V32.8H41.3004V32.25C41.3004 31.9833 41.1671 31.85 40.9004 31.85H40.0004ZM42.8504 35.9C41.5637 36.0333 40.3971 36.1 39.3504 36.1C38.8971 36.1 38.5337 35.9633 38.2604 35.69C37.9871 35.4167 37.8504 35.0533 37.8504 34.6V32.2C37.8504 31.7 37.9904 31.31 38.2704 31.03C38.5571 30.7433 38.9504 30.6 39.4504 30.6H41.4504C41.9504 30.6 42.3404 30.7433 42.6204 31.03C42.9071 31.31 43.0504 31.7 43.0504 32.2V34.05H39.6004V34.45C39.6004 34.55 39.6337 34.6333 39.7004 34.7C39.7671 34.7667 39.8504 34.8 39.9504 34.8C40.6104 34.8 41.5771 34.75 42.8504 34.65V35.9ZM47.0965 32.65V30.7H48.8465V36H47.0965V34H45.2965V36H43.5465V30.7H45.2965V32.65H47.0965ZM52.8953 30.7H54.7453V36H52.9953V33.1L51.2953 36H49.4453V30.7H51.1953V33.6L52.8953 30.7ZM60.5441 30.7V36H58.7941V34.35H57.9441L56.9941 36H55.1441L56.1441 34.25C55.8641 34.15 55.6441 33.98 55.4841 33.74C55.3241 33.5 55.2441 33.2033 55.2441 32.85V32.2C55.2441 31.7467 55.3808 31.3833 55.6541 31.11C55.9275 30.8367 56.2908 30.7 56.7441 30.7H60.5441ZM57.3441 31.95C57.2441 31.95 57.1608 31.9833 57.0941 32.05C57.0275 32.1167 56.9941 32.2 56.9941 32.3V32.75C56.9941 32.85 57.0275 32.9333 57.0941 33C57.1608 33.0667 57.2441 33.1 57.3441 33.1H58.7941V31.95H57.3441Z" fill="#485F7C"/>
<path d="M23.7 24H21.9V21.15H19.4V24H17.6V17H19.4V19.75H21.9V17H23.7V24ZM27.0547 19.85C26.788 19.85 26.6547 19.9833 26.6547 20.25V20.8H28.3547V20.25C28.3547 19.9833 28.2214 19.85 27.9547 19.85H27.0547ZM29.9047 23.9C28.618 24.0333 27.4514 24.1 26.4047 24.1C25.9514 24.1 25.588 23.9633 25.3147 23.69C25.0414 23.4167 24.9047 23.0533 24.9047 22.6V20.2C24.9047 19.7 25.0447 19.31 25.3247 19.03C25.6114 18.7433 26.0047 18.6 26.5047 18.6H28.5047C29.0047 18.6 29.3947 18.7433 29.6747 19.03C29.9614 19.31 30.1047 19.7 30.1047 20.2V22.05H26.6547V22.45C26.6547 22.55 26.688 22.6333 26.7547 22.7C26.8214 22.7667 26.9047 22.8 27.0047 22.8C27.6647 22.8 28.6314 22.75 29.9047 22.65V23.9ZM34.2008 20.05V24H32.4508V20.05H30.8008V18.7H35.8508V20.05H34.2008ZM40.1047 18.7H41.9547V24H40.2047V21.1L38.5047 24H36.6547V18.7H38.4047V21.6L40.1047 18.7ZM48.4535 18.7V24H46.7035V20.05H44.9035V24H43.1535V18.7H48.4535ZM55.0523 22.5C55.0523 23 54.909 23.3933 54.6223 23.68C54.3423 23.96 53.9523 24.1 53.4523 24.1H51.1523C50.6523 24.1 50.259 23.96 49.9723 23.68C49.6923 23.3933 49.5523 23 49.5523 22.5V20.2C49.5523 19.7 49.6923 19.31 49.9723 19.03C50.259 18.7433 50.6523 18.6 51.1523 18.6H53.4523C53.9523 18.6 54.3423 18.7433 54.6223 19.03C54.909 19.31 55.0523 19.7 55.0523 20.2V22.5ZM53.3023 20.35C53.3023 20.0833 53.169 19.95 52.9023 19.95H51.7023C51.4357 19.95 51.3023 20.0833 51.3023 20.35V22.35C51.3023 22.6167 51.4357 22.75 51.7023 22.75H52.9023C53.169 22.75 53.3023 22.6167 53.3023 22.35V20.35ZM59.9512 24H56.1512V18.7H59.6512C60.0978 18.7 60.4578 18.8333 60.7312 19.1C61.0112 19.36 61.1512 19.6533 61.1512 19.98C61.1512 20.3067 61.0812 20.5733 60.9412 20.78C60.8012 20.9867 60.6045 21.1267 60.3512 21.2C60.6512 21.2533 60.9078 21.4 61.1212 21.64C61.3412 21.88 61.4512 22.2 61.4512 22.6C61.4512 23 61.3112 23.3333 61.0312 23.6C60.7578 23.8667 60.3978 24 59.9512 24ZM59.7012 22.3C59.7012 22.2 59.6678 22.1167 59.6012 22.05C59.5345 21.9833 59.4512 21.95 59.3512 21.95H57.9012V22.8H59.3512C59.4512 22.8 59.5345 22.7667 59.6012 22.7C59.6678 22.6333 59.7012 22.55 59.7012 22.45V22.3ZM59.4012 20.25C59.4012 20.15 59.3678 20.0667 59.3012 20C59.2345 19.9333 59.1512 19.9 59.0512 19.9H57.9012V20.8H59.0512C59.1512 20.8 59.2345 20.7667 59.3012 20.7C59.3678 20.6333 59.4012 20.55 59.4012 20.45V20.25Z" fill="#485F7C"/>
<path d="M62.3473 24V18.7H64.0973V20.35H66.0473C66.5006 20.35 66.8639 20.4867 67.1373 20.76C67.4106 21.0333 67.5473 21.3967 67.5473 21.85V22.5C67.5473 22.9533 67.4106 23.3167 67.1373 23.59C66.8639 23.8633 66.5006 24 66.0473 24H62.3473ZM65.4473 22.75C65.5473 22.75 65.6306 22.7167 65.6973 22.65C65.7639 22.5833 65.7973 22.5 65.7973 22.4V21.96C65.7973 21.86 65.7639 21.7767 65.6973 21.71C65.6306 21.6433 65.5473 21.61 65.4473 21.61H64.0973V22.75H65.4473ZM69.9473 24H68.1973V18.7H69.9473V24ZM73.2008 19.85C72.9341 19.85 72.8008 19.9833 72.8008 20.25V20.8H74.5008V20.25C74.5008 19.9833 74.3674 19.85 74.1008 19.85H73.2008ZM76.0508 23.9C74.7641 24.0333 73.5974 24.1 72.5508 24.1C72.0974 24.1 71.7341 23.9633 71.4608 23.69C71.1874 23.4167 71.0508 23.0533 71.0508 22.6V20.2C71.0508 19.7 71.1908 19.31 71.4708 19.03C71.7574 18.7433 72.1508 18.6 72.6508 18.6H74.6508C75.1508 18.6 75.5408 18.7433 75.8208 19.03C76.1074 19.31 76.2508 19.7 76.2508 20.2V22.05H72.8008V22.45C72.8008 22.55 72.8341 22.6333 72.9008 22.7C72.9674 22.7667 73.0508 22.8 73.1508 22.8C73.8108 22.8 74.7774 22.75 76.0508 22.65V23.9Z" fill="#FFEEAF"/>
</svg>
