<svg width="150" height="105" viewBox="0 0 150 105" fill="none" xmlns="http://www.w3.org/2000/svg">
<rect x="97.4824" width="52.5174" height="103.849" fill="#FFEEAF"/>
<rect width="9.47367" height="104.21" fill="#FFEEAF"/>
<path d="M6.31567 102.631L82.4058 102.631" stroke="#FFEEAF" stroke-width="2" stroke-linecap="round"/>
<path d="M3.15796 1.5791L67.1428 1.5791" stroke="#FFEEAF" stroke-width="2" stroke-linecap="round"/>
<path d="M102.636 17.3682H148.421" stroke="#485F7C" stroke-width="1.71157" stroke-linecap="round"/>
<path d="M129.475 34.7368L148.421 34.7368" stroke="#485F7C" stroke-width="1.71157" stroke-linecap="round"/>
<path d="M113.688 52.105L148.421 52.105" stroke="#485F7C" stroke-width="1.71157" stroke-linecap="round"/>
<path d="M102.631 70.5806L148.171 70.5806" stroke="#485F7C" stroke-width="1.71157" stroke-linecap="round"/>
<path d="M28.492 69V63.55L27.342 63.95L26.842 62.8L28.692 62H30.292V69H28.492ZM37.2948 68.9C35.8081 69.0333 34.5748 69.1 33.5948 69.1C32.9414 69.1 32.4614 68.9467 32.1548 68.64C31.8481 68.3333 31.6948 67.8533 31.6948 67.2V64C31.6948 63.3 31.8514 62.7933 32.1648 62.48C32.4848 62.16 32.9948 62 33.6948 62H37.2948V63.4H34.0948C33.6948 63.4 33.4948 63.6 33.4948 64V67.2C33.4948 67.3533 33.5381 67.4767 33.6248 67.57C33.7181 67.6567 33.8348 67.7 33.9748 67.7C34.1148 67.7 34.2681 67.7 34.4348 67.7C34.6014 67.6933 34.7748 67.6867 34.9548 67.68C35.1348 67.6733 35.3148 67.6667 35.4948 67.66C35.6814 67.6533 35.9181 67.64 36.2048 67.62C36.4981 67.6 36.8614 67.5767 37.2948 67.55V68.9Z" fill="#FFEEAF"/>
<path d="M27.442 44.6313H31.642C32.342 44.6313 32.8487 44.7913 33.162 45.1113C33.482 45.4247 33.642 45.9313 33.642 46.6313V47.6313C33.642 48.3313 33.482 48.8413 33.162 49.1613C32.8487 49.4747 32.342 49.6313 31.642 49.6313H29.242V51.6313H27.442V44.6313ZM31.842 46.6313C31.842 46.2313 31.642 46.0313 31.242 46.0313H29.242V48.2313H31.242C31.642 48.2313 31.842 48.0313 31.842 47.6313V46.6313ZM36.0917 47.4813C35.825 47.4813 35.6917 47.6147 35.6917 47.8813V48.4313H37.3917V47.8813C37.3917 47.6147 37.2583 47.4813 36.9917 47.4813H36.0917ZM38.9417 51.5313C37.655 51.6647 36.4883 51.7313 35.4417 51.7313C34.9883 51.7313 34.625 51.5947 34.3517 51.3213C34.0783 51.048 33.9417 50.6847 33.9417 50.2313V47.8313C33.9417 47.3313 34.0817 46.9413 34.3617 46.6613C34.6483 46.3747 35.0417 46.2313 35.5417 46.2313H37.5417C38.0417 46.2313 38.4317 46.3747 38.7117 46.6613C38.9983 46.9413 39.1417 47.3313 39.1417 47.8313V49.6813H35.6917V50.0813C35.6917 50.1813 35.725 50.2647 35.7917 50.3313C35.8583 50.398 35.9417 50.4313 36.0417 50.4313C36.7017 50.4313 37.6683 50.3813 38.9417 50.2813V51.5313ZM39.6377 51.6313V46.3313H41.3877V50.2813H42.5377V46.3313H44.2877V50.2813H45.4377V46.3313H47.1877V51.6313H39.6377ZM49.8424 47.4813C49.5758 47.4813 49.4424 47.6147 49.4424 47.8813V48.4313H51.1424V47.8813C51.1424 47.6147 51.0091 47.4813 50.7424 47.4813H49.8424ZM52.6924 51.5313C51.4058 51.6647 50.2391 51.7313 49.1924 51.7313C48.7391 51.7313 48.3758 51.5947 48.1024 51.3213C47.8291 51.048 47.6924 50.6847 47.6924 50.2313V47.8313C47.6924 47.3313 47.8324 46.9413 48.1124 46.6613C48.3991 46.3747 48.7924 46.2313 49.2924 46.2313H51.2924C51.7924 46.2313 52.1824 46.3747 52.4624 46.6613C52.7491 46.9413 52.8924 47.3313 52.8924 47.8313V49.6813H49.4424V50.0813C49.4424 50.1813 49.4758 50.2647 49.5424 50.3313C49.6091 50.398 49.6924 50.4313 49.7924 50.4313C50.4524 50.4313 51.4191 50.3813 52.6924 50.2813V51.5313ZM56.9385 48.2813V46.3313H58.6885V51.6313H56.9385V49.6313H55.1385V51.6313H53.3885V46.3313H55.1385V48.2813H56.9385ZM62.7374 46.3313H64.5874V51.6313H62.8374V48.7313L61.1374 51.6313H59.2874V46.3313H61.0374V49.2313L62.7374 46.3313ZM70.3862 46.3313V51.6313H68.6362V49.9813H67.7862L66.8362 51.6313H64.9862L65.9862 49.8813C65.7062 49.7813 65.4862 49.6113 65.3262 49.3713C65.1662 49.1313 65.0862 48.8347 65.0862 48.4813V47.8313C65.0862 47.378 65.2228 47.0147 65.4962 46.7413C65.7695 46.468 66.1328 46.3313 66.5862 46.3313H70.3862ZM67.1862 47.5813C67.0862 47.5813 67.0028 47.6147 66.9362 47.6813C66.8695 47.748 66.8362 47.8313 66.8362 47.9313V48.3813C66.8362 48.4813 66.8695 48.5647 66.9362 48.6313C67.0028 48.698 67.0862 48.7313 67.1862 48.7313H68.6362V47.5813H67.1862Z" fill="#FFEEAF"/>
<path d="M33.542 32.6841H31.742V29.8341H29.242V32.6841H27.442V25.6841H29.242V28.4341H31.742V25.6841H33.542V32.6841ZM36.8967 28.5341C36.6301 28.5341 36.4967 28.6674 36.4967 28.9341V29.4841H38.1967V28.9341C38.1967 28.6674 38.0634 28.5341 37.7967 28.5341H36.8967ZM39.7467 32.5841C38.4601 32.7174 37.2934 32.7841 36.2467 32.7841C35.7934 32.7841 35.4301 32.6474 35.1567 32.3741C34.8834 32.1007 34.7467 31.7374 34.7467 31.2841V28.8841C34.7467 28.3841 34.8867 27.9941 35.1667 27.7141C35.4534 27.4274 35.8467 27.2841 36.3467 27.2841H38.3467C38.8467 27.2841 39.2367 27.4274 39.5167 27.7141C39.8034 27.9941 39.9467 28.3841 39.9467 28.8841V30.7341H36.4967V31.1341C36.4967 31.2341 36.5301 31.3174 36.5967 31.3841C36.6634 31.4507 36.7467 31.4841 36.8467 31.4841C37.5067 31.4841 38.4734 31.4341 39.7467 31.3341V32.5841ZM44.0428 28.7341V32.6841H42.2928V28.7341H40.6428V27.3841H45.6928V28.7341H44.0428ZM49.9467 27.3841H51.7967V32.6841H50.0467V29.7841L48.3467 32.6841H46.4967V27.3841H48.2467V30.2841L49.9467 27.3841ZM58.2956 27.3841V32.6841H56.5456V28.7341H54.7456V32.6841H52.9956V27.3841H58.2956ZM64.8944 31.1841C64.8944 31.6841 64.7511 32.0774 64.4644 32.3641C64.1844 32.6441 63.7944 32.7841 63.2944 32.7841H60.9944C60.4944 32.7841 60.1011 32.6441 59.8144 32.3641C59.5344 32.0774 59.3944 31.6841 59.3944 31.1841V28.8841C59.3944 28.3841 59.5344 27.9941 59.8144 27.7141C60.1011 27.4274 60.4944 27.2841 60.9944 27.2841H63.2944C63.7944 27.2841 64.1844 27.4274 64.4644 27.7141C64.7511 27.9941 64.8944 28.3841 64.8944 28.8841V31.1841ZM63.1444 29.0341C63.1444 28.7674 63.0111 28.6341 62.7444 28.6341H61.5444C61.2777 28.6341 61.1444 28.7674 61.1444 29.0341V31.0341C61.1444 31.3007 61.2777 31.4341 61.5444 31.4341H62.7444C63.0111 31.4341 63.1444 31.3007 63.1444 31.0341V29.0341ZM69.7932 32.6841H65.9932V27.3841H69.4932C69.9399 27.3841 70.2999 27.5174 70.5732 27.7841C70.8532 28.0441 70.9932 28.3374 70.9932 28.6641C70.9932 28.9907 70.9232 29.2574 70.7832 29.4641C70.6432 29.6707 70.4465 29.8107 70.1932 29.8841C70.4932 29.9374 70.7499 30.0841 70.9632 30.3241C71.1832 30.5641 71.2932 30.8841 71.2932 31.2841C71.2932 31.6841 71.1532 32.0174 70.8732 32.2841C70.5999 32.5507 70.2399 32.6841 69.7932 32.6841ZM69.5432 30.9841C69.5432 30.8841 69.5099 30.8007 69.4432 30.7341C69.3765 30.6674 69.2932 30.6341 69.1932 30.6341H67.7432V31.4841H69.1932C69.2932 31.4841 69.3765 31.4507 69.4432 31.3841C69.5099 31.3174 69.5432 31.2341 69.5432 31.1341V30.9841ZM69.2432 28.9341C69.2432 28.8341 69.2099 28.7507 69.1432 28.6841C69.0765 28.6174 68.9932 28.5841 68.8932 28.5841H67.7432V29.4841H68.8932C68.9932 29.4841 69.0765 29.4507 69.1432 29.3841C69.2099 29.3174 69.2432 29.2341 69.2432 29.1341V28.9341Z" fill="#FFEEAF"/>
<path d="M72.1893 32.6841V27.3841H73.9393V29.0341H75.8893C76.3426 29.0341 76.706 29.1707 76.9793 29.4441C77.2526 29.7174 77.3893 30.0807 77.3893 30.5341V31.1841C77.3893 31.6374 77.2526 32.0007 76.9793 32.2741C76.706 32.5474 76.3426 32.6841 75.8893 32.6841H72.1893ZM75.2893 31.4341C75.3893 31.4341 75.4726 31.4007 75.5393 31.3341C75.606 31.2674 75.6393 31.1841 75.6393 31.0841V30.6441C75.6393 30.5441 75.606 30.4607 75.5393 30.3941C75.4726 30.3274 75.3893 30.2941 75.2893 30.2941H73.9393V31.4341H75.2893ZM79.7893 32.6841H78.0393V27.3841H79.7893V32.6841ZM83.0428 28.5341C82.7762 28.5341 82.6428 28.6674 82.6428 28.9341V29.4841H84.3428V28.9341C84.3428 28.6674 84.2095 28.5341 83.9428 28.5341H83.0428ZM85.8928 32.5841C84.6062 32.7174 83.4395 32.7841 82.3928 32.7841C81.9395 32.7841 81.5762 32.6474 81.3028 32.3741C81.0295 32.1007 80.8928 31.7374 80.8928 31.2841V28.8841C80.8928 28.3841 81.0328 27.9941 81.3128 27.7141C81.5995 27.4274 81.9928 27.2841 82.4928 27.2841H84.4928C84.9928 27.2841 85.3828 27.4274 85.6628 27.7141C85.9495 27.9941 86.0928 28.3841 86.0928 28.8841V30.7341H82.6428V31.1341C82.6428 31.2341 82.6762 31.3174 82.7428 31.3841C82.8095 31.4507 82.8928 31.4841 82.9928 31.4841C83.6528 31.4841 84.6195 31.4341 85.8928 31.3341V32.5841Z" fill="#485F7C"/>
</svg>
