<svg width="96" height="66" viewBox="0 0 96 66" fill="none" xmlns="http://www.w3.org/2000/svg">
<rect x="62.239" width="33.2611" height="65.7714" fill="#FFEEAF"/>
<rect x="0.5" width="6" height="66" fill="#FFEEAF"/>
<path d="M4.5 65L52.6905 65" stroke="#FFEEAF" stroke-width="2" stroke-linecap="round"/>
<path d="M2.5 1L43.0238 0.999997" stroke="#FFEEAF" stroke-width="2" stroke-linecap="round"/>
<path d="M65.5029 11H94.5" stroke="#485F7C" stroke-width="1.71157" stroke-linecap="round"/>
<path d="M82.5012 22L94.5 22" stroke="#485F7C" stroke-width="1.71157" stroke-linecap="round"/>
<path d="M72.5022 33L94.5 33" stroke="#485F7C" stroke-width="1.71157" stroke-linecap="round"/>
<path d="M65.5 44.7012L94.3421 44.7012" stroke="#485F7C" stroke-width="1.71157" stroke-linecap="round"/>
<path d="M19.15 47V41.55L18 41.95L17.5 40.8L19.35 40H20.95V47H19.15ZM27.9527 46.9C26.4661 47.0333 25.2327 47.1 24.2527 47.1C23.5994 47.1 23.1194 46.9467 22.8127 46.64C22.5061 46.3333 22.3527 45.8533 22.3527 45.2V42C22.3527 41.3 22.5094 40.7933 22.8227 40.48C23.1427 40.16 23.6527 40 24.3527 40H27.9527V41.4H24.7527C24.3527 41.4 24.1527 41.6 24.1527 42V45.2C24.1527 45.3533 24.1961 45.4767 24.2827 45.57C24.3761 45.6567 24.4927 45.7 24.6327 45.7C24.7727 45.7 24.9261 45.7 25.0927 45.7C25.2594 45.6933 25.4327 45.6867 25.6127 45.68C25.7927 45.6733 25.9727 45.6667 26.1527 45.66C26.3394 45.6533 26.5761 45.64 26.8627 45.62C27.1561 45.6 27.5194 45.5767 27.9527 45.55V46.9Z" fill="#FFEEAF"/>
<path d="M18.1 29H22.3C23 29 23.5067 29.16 23.82 29.48C24.14 29.7933 24.3 30.3 24.3 31V32C24.3 32.7 24.14 33.21 23.82 33.53C23.5067 33.8433 23 34 22.3 34H19.9V36H18.1V29ZM22.5 31C22.5 30.6 22.3 30.4 21.9 30.4H19.9V32.6H21.9C22.3 32.6 22.5 32.4 22.5 32V31ZM26.7496 31.85C26.4829 31.85 26.3496 31.9833 26.3496 32.25V32.8H28.0496V32.25C28.0496 31.9833 27.9163 31.85 27.6496 31.85H26.7496ZM29.5996 35.9C28.3129 36.0333 27.1463 36.1 26.0996 36.1C25.6463 36.1 25.2829 35.9633 25.0096 35.69C24.7363 35.4167 24.5996 35.0533 24.5996 34.6V32.2C24.5996 31.7 24.7396 31.31 25.0196 31.03C25.3063 30.7433 25.6996 30.6 26.1996 30.6H28.1996C28.6996 30.6 29.0896 30.7433 29.3696 31.03C29.6563 31.31 29.7996 31.7 29.7996 32.2V34.05H26.3496V34.45C26.3496 34.55 26.3829 34.6333 26.4496 34.7C26.5163 34.7667 26.5996 34.8 26.6996 34.8C27.3596 34.8 28.3263 34.75 29.5996 34.65V35.9ZM30.2957 36V30.7H32.0457V34.65H33.1957V30.7H34.9457V34.65H36.0957V30.7H37.8457V36H30.2957ZM40.5004 31.85C40.2337 31.85 40.1004 31.9833 40.1004 32.25V32.8H41.8004V32.25C41.8004 31.9833 41.6671 31.85 41.4004 31.85H40.5004ZM43.3504 35.9C42.0637 36.0333 40.8971 36.1 39.8504 36.1C39.3971 36.1 39.0337 35.9633 38.7604 35.69C38.4871 35.4167 38.3504 35.0533 38.3504 34.6V32.2C38.3504 31.7 38.4904 31.31 38.7704 31.03C39.0571 30.7433 39.4504 30.6 39.9504 30.6H41.9504C42.4504 30.6 42.8404 30.7433 43.1204 31.03C43.4071 31.31 43.5504 31.7 43.5504 32.2V34.05H40.1004V34.45C40.1004 34.55 40.1337 34.6333 40.2004 34.7C40.2671 34.7667 40.3504 34.8 40.4504 34.8C41.1104 34.8 42.0771 34.75 43.3504 34.65V35.9ZM47.5965 32.65V30.7H49.3465V36H47.5965V34H45.7965V36H44.0465V30.7H45.7965V32.65H47.5965ZM53.3953 30.7H55.2453V36H53.4953V33.1L51.7953 36H49.9453V30.7H51.6953V33.6L53.3953 30.7ZM61.0441 30.7V36H59.2941V34.35H58.4441L57.4941 36H55.6441L56.6441 34.25C56.3641 34.15 56.1441 33.98 55.9841 33.74C55.8241 33.5 55.7441 33.2033 55.7441 32.85V32.2C55.7441 31.7467 55.8808 31.3833 56.1541 31.11C56.4275 30.8367 56.7908 30.7 57.2441 30.7H61.0441ZM57.8441 31.95C57.7441 31.95 57.6608 31.9833 57.5941 32.05C57.5275 32.1167 57.4941 32.2 57.4941 32.3V32.75C57.4941 32.85 57.5275 32.9333 57.5941 33C57.6608 33.0667 57.7441 33.1 57.8441 33.1H59.2941V31.95H57.8441Z" fill="#FFEEAF"/>
<path d="M24.2 24H22.4V21.15H19.9V24H18.1V17H19.9V19.75H22.4V17H24.2V24ZM27.5547 19.85C27.288 19.85 27.1547 19.9833 27.1547 20.25V20.8H28.8547V20.25C28.8547 19.9833 28.7214 19.85 28.4547 19.85H27.5547ZM30.4047 23.9C29.118 24.0333 27.9514 24.1 26.9047 24.1C26.4514 24.1 26.088 23.9633 25.8147 23.69C25.5414 23.4167 25.4047 23.0533 25.4047 22.6V20.2C25.4047 19.7 25.5447 19.31 25.8247 19.03C26.1114 18.7433 26.5047 18.6 27.0047 18.6H29.0047C29.5047 18.6 29.8947 18.7433 30.1747 19.03C30.4614 19.31 30.6047 19.7 30.6047 20.2V22.05H27.1547V22.45C27.1547 22.55 27.188 22.6333 27.2547 22.7C27.3214 22.7667 27.4047 22.8 27.5047 22.8C28.1647 22.8 29.1314 22.75 30.4047 22.65V23.9ZM34.7008 20.05V24H32.9508V20.05H31.3008V18.7H36.3508V20.05H34.7008ZM40.6047 18.7H42.4547V24H40.7047V21.1L39.0047 24H37.1547V18.7H38.9047V21.6L40.6047 18.7ZM48.9535 18.7V24H47.2035V20.05H45.4035V24H43.6535V18.7H48.9535ZM55.5523 22.5C55.5523 23 55.409 23.3933 55.1223 23.68C54.8423 23.96 54.4523 24.1 53.9523 24.1H51.6523C51.1523 24.1 50.759 23.96 50.4723 23.68C50.1923 23.3933 50.0523 23 50.0523 22.5V20.2C50.0523 19.7 50.1923 19.31 50.4723 19.03C50.759 18.7433 51.1523 18.6 51.6523 18.6H53.9523C54.4523 18.6 54.8423 18.7433 55.1223 19.03C55.409 19.31 55.5523 19.7 55.5523 20.2V22.5ZM53.8023 20.35C53.8023 20.0833 53.669 19.95 53.4023 19.95H52.2023C51.9357 19.95 51.8023 20.0833 51.8023 20.35V22.35C51.8023 22.6167 51.9357 22.75 52.2023 22.75H53.4023C53.669 22.75 53.8023 22.6167 53.8023 22.35V20.35ZM60.4512 24H56.6512V18.7H60.1512C60.5978 18.7 60.9578 18.8333 61.2312 19.1C61.5112 19.36 61.6512 19.6533 61.6512 19.98C61.6512 20.3067 61.5812 20.5733 61.4412 20.78C61.3012 20.9867 61.1045 21.1267 60.8512 21.2C61.1512 21.2533 61.4078 21.4 61.6212 21.64C61.8412 21.88 61.9512 22.2 61.9512 22.6C61.9512 23 61.8112 23.3333 61.5312 23.6C61.2578 23.8667 60.8978 24 60.4512 24ZM60.2012 22.3C60.2012 22.2 60.1678 22.1167 60.1012 22.05C60.0345 21.9833 59.9512 21.95 59.8512 21.95H58.4012V22.8H59.8512C59.9512 22.8 60.0345 22.7667 60.1012 22.7C60.1678 22.6333 60.2012 22.55 60.2012 22.45V22.3ZM59.9012 20.25C59.9012 20.15 59.8678 20.0667 59.8012 20C59.7345 19.9333 59.6512 19.9 59.5512 19.9H58.4012V20.8H59.5512C59.6512 20.8 59.7345 20.7667 59.8012 20.7C59.8678 20.6333 59.9012 20.55 59.9012 20.45V20.25Z" fill="#FFEEAF"/>
<path d="M62.8473 24V18.7H64.5973V20.35H66.5473C67.0006 20.35 67.3639 20.4867 67.6373 20.76C67.9106 21.0333 68.0473 21.3967 68.0473 21.85V22.5C68.0473 22.9533 67.9106 23.3167 67.6373 23.59C67.3639 23.8633 67.0006 24 66.5473 24H62.8473ZM65.9473 22.75C66.0473 22.75 66.1306 22.7167 66.1973 22.65C66.2639 22.5833 66.2973 22.5 66.2973 22.4V21.96C66.2973 21.86 66.2639 21.7767 66.1973 21.71C66.1306 21.6433 66.0473 21.61 65.9473 21.61H64.5973V22.75H65.9473ZM70.4473 24H68.6973V18.7H70.4473V24ZM73.7008 19.85C73.4341 19.85 73.3008 19.9833 73.3008 20.25V20.8H75.0008V20.25C75.0008 19.9833 74.8674 19.85 74.6008 19.85H73.7008ZM76.5508 23.9C75.2641 24.0333 74.0974 24.1 73.0508 24.1C72.5974 24.1 72.2341 23.9633 71.9608 23.69C71.6874 23.4167 71.5508 23.0533 71.5508 22.6V20.2C71.5508 19.7 71.6908 19.31 71.9708 19.03C72.2574 18.7433 72.6508 18.6 73.1508 18.6H75.1508C75.6508 18.6 76.0408 18.7433 76.3208 19.03C76.6074 19.31 76.7508 19.7 76.7508 20.2V22.05H73.3008V22.45C73.3008 22.55 73.3341 22.6333 73.4008 22.7C73.4674 22.7667 73.5508 22.8 73.6508 22.8C74.3108 22.8 75.2774 22.75 76.5508 22.65V23.9Z" fill="#485F7C"/>
</svg>
