<svg width="50" height="70" viewBox="0 0 50 70" fill="none" xmlns="http://www.w3.org/2000/svg">
<path d="M24.9894 0.833344C18.3818 0.838862 12.0449 3.4589 7.36276 8.1212C2.68059 12.7835 0.0336239 19.1092 0 25.7167C0 35.6233 5.55791 43.9178 9.63089 49.9636L10.3734 51.0667C14.4257 56.9399 18.773 62.6041 23.3984 68.0374L25.0106 69.9254L26.6228 68.0374C31.2477 62.6036 35.5949 56.9394 39.6479 51.0667L40.3903 49.9424C44.4421 43.8966 50 35.6233 50 25.7167C49.9664 19.1055 47.3165 12.7766 42.6297 8.11372C37.943 3.45082 31.6006 0.833258 24.9894 0.833344ZM24.9894 36.8961C22.2371 36.8961 19.5466 36.08 17.2581 34.5509C14.9696 33.0218 13.186 30.8484 12.1327 28.3056C11.0794 25.7627 10.8038 22.9647 11.3408 20.2653C11.8777 17.5658 13.2031 15.0862 15.1493 13.14C17.0955 11.1939 19.5751 9.86849 22.2745 9.33154C24.974 8.79459 27.772 9.07017 30.3148 10.1234C32.8576 11.1767 35.031 12.9604 36.5601 15.2488C38.0892 17.5373 38.9054 20.2278 38.9054 22.9801C38.9054 26.6709 37.4392 30.2105 34.8295 32.8202C32.2197 35.43 28.6801 36.8961 24.9894 36.8961Z" fill="#4C79B2"/>
<path d="M25 37C32.732 37 39 30.732 39 23C39 15.268 32.732 9 25 9C17.268 9 11 15.268 11 23C11 30.732 17.268 37 25 37Z" fill="white"/>
</svg>
