<svg width="61" height="61" viewBox="0 0 61 61" fill="none" xmlns="http://www.w3.org/2000/svg">
<circle cx="30" cy="30.7141" r="22.1429" fill="#FFEEAF"/>
<path d="M30.2155 8.2639e-05C22.1888 0.0375407 14.5037 3.2524 8.84126 8.94142C3.17879 14.6304 -8.74008e-05 22.3305 1.80229e-09 30.3572C1.80231e-09 38.4084 3.19833 46.1299 8.8914 51.823C14.5845 57.516 22.3059 60.7144 30.3571 60.7144C38.4084 60.7144 46.1298 57.516 51.8229 51.823C57.516 46.1299 60.7143 38.4084 60.7143 30.3572C60.7143 22.306 57.516 14.5846 51.8229 8.89148C46.1298 3.19841 38.4084 8.2639e-05 30.3571 8.2639e-05C30.3099 -2.75463e-05 30.2627 -2.75463e-05 30.2155 8.2639e-05ZM42.7682 18.2751C43.0211 18.27 43.5802 18.3333 43.9445 18.6292C44.1866 18.8395 44.3409 19.1329 44.3771 19.4514C44.4176 19.6867 44.4682 20.2255 44.4277 20.6455C43.9723 25.447 41.994 37.094 40.9872 42.4697C40.5622 44.7465 39.7249 45.508 38.9128 45.5813C37.1521 45.7458 35.8138 44.4176 34.1063 43.2995C31.4348 41.5464 29.9246 40.456 27.3315 38.7459C24.3338 36.7727 26.2766 35.6849 27.9842 33.9141C28.432 33.4486 36.1984 26.383 36.3502 25.7429C36.3679 25.662 36.3856 25.3635 36.2085 25.2066C36.0314 25.0498 35.7683 25.1029 35.5786 25.1459C35.3104 25.2066 31.0427 28.0298 22.7754 33.608C21.5612 34.4428 20.4658 34.8476 19.4817 34.8223C18.399 34.802 16.3144 34.2126 14.7637 33.7092C12.8613 33.0894 11.351 32.763 11.4826 31.7132C11.5509 31.1667 12.3048 30.6077 13.7417 30.0359C22.5908 26.1806 28.4902 23.6382 31.4449 22.4112C39.8741 18.905 41.6272 18.2953 42.7682 18.2751Z" fill="#0A1523"/>
</svg>
