<svg width="90" height="90" viewBox="0 0 90 90" fill="none" xmlns="http://www.w3.org/2000/svg">
<g filter="url(#filter0_d_25_160)">
<path d="M44.8833 20.0001C38.2732 20.0309 31.9442 22.6784 27.281 27.3635C22.6178 32.0486 19.9999 38.3898 20 45C20 51.6304 22.6339 57.9893 27.3223 62.6777C32.0107 67.3661 38.3696 70 45 70C51.6304 70 57.9893 67.3661 62.6777 62.6777C67.3661 57.9893 70 51.6304 70 45C70 38.3696 67.3661 32.0108 62.6777 27.3224C57.9893 22.634 51.6304 20.0001 45 20.0001C44.9611 20 44.9222 20 44.8833 20.0001ZM55.2208 35.05C55.4292 35.0459 55.8896 35.098 56.1896 35.3417C56.3889 35.5148 56.5161 35.7565 56.5458 36.0188C56.5792 36.2125 56.6208 36.6563 56.5875 37.0021C56.2125 40.9563 54.5833 50.5479 53.7542 54.975C53.4042 56.85 52.7146 57.4771 52.0458 57.5375C50.5958 57.6729 49.4937 56.5792 48.0875 55.6584C45.8875 54.2146 44.6437 53.3167 42.5083 51.9084C40.0396 50.2834 41.6396 49.3875 43.0458 47.9292C43.4146 47.5459 49.8104 41.7271 49.9354 41.2C49.95 41.1334 49.9646 40.8875 49.8187 40.7584C49.6729 40.6292 49.4562 40.673 49.3 40.7084C49.0792 40.7584 45.5646 43.0834 38.7563 47.6771C37.7563 48.3646 36.8542 48.6979 36.0438 48.6771C35.1521 48.6604 33.4354 48.175 32.1583 47.7604C30.5917 47.25 29.3479 46.9813 29.4562 46.1167C29.5125 45.6667 30.1333 45.2063 31.3167 44.7355C38.6042 41.5605 43.4625 39.4667 45.8958 38.4563C52.8375 35.5688 54.2812 35.0667 55.2208 35.05Z" fill="#0A1523"/>
</g>
<defs>
<filter id="filter0_d_25_160" x="0" y="0" width="90" height="90" filterUnits="userSpaceOnUse" color-interpolation-filters="sRGB">
<feFlood flood-opacity="0" result="BackgroundImageFix"/>
<feColorMatrix in="SourceAlpha" type="matrix" values="0 0 0 0 0 0 0 0 0 0 0 0 0 0 0 0 0 0 127 0" result="hardAlpha"/>
<feOffset/>
<feGaussianBlur stdDeviation="10"/>
<feComposite in2="hardAlpha" operator="out"/>
<feColorMatrix type="matrix" values="0 0 0 0 1 0 0 0 0 0.933333 0 0 0 0 0.686275 0 0 0 1 0"/>
<feBlend mode="normal" in2="BackgroundImageFix" result="effect1_dropShadow_25_160"/>
<feBlend mode="normal" in="SourceGraphic" in2="effect1_dropShadow_25_160" result="shape"/>
</filter>
</defs>
</svg>
