<svg width="61" height="61" viewBox="0 0 61 61" fill="none" xmlns="http://www.w3.org/2000/svg">
<rect x="0.285156" width="60.7143" height="60.7143" rx="10.7143" fill="#0A1523"/>
<path d="M43.1515 16.6517L40.747 18.5303L30.5087 26.1385L20.2705 18.4551L17.8659 16.5766C17.2994 16.1079 16.6079 15.8158 15.877 15.7364C15.1461 15.6569 14.408 15.7936 13.7541 16.1296C13.1001 16.4656 12.5592 16.986 12.1981 17.6264C11.8371 18.2669 11.6719 18.9992 11.7229 19.7326V41.5053C11.7229 42.1829 11.9921 42.8327 12.4713 43.3118C12.9504 43.791 13.6002 44.0601 14.2778 44.0601H20.2705V29.5575L30.5087 37.2409L40.747 29.5575V44.0601H46.7396C47.4172 44.0601 48.0671 43.791 48.5462 43.3118C49.0253 42.8327 49.2945 42.1829 49.2945 41.5053V19.7326C49.3298 19.0055 49.1531 18.2838 48.7859 17.6553C48.4187 17.0267 47.8768 16.5184 47.2261 16.1921C46.5754 15.8657 45.8439 15.7354 45.1206 15.817C44.3972 15.8986 43.7132 16.1886 43.1515 16.6517Z" fill="#FFEEAF"/>
</svg>
